<?xml version="1.0" standalone="no"?>
<!DOCTYPE svg PUBLIC "-//W3C//DTD SVG 20010904//EN"
 "http://www.w3.org/TR/2001/REC-SVG-20010904/DTD/svg10.dtd">
<svg version="1.0" xmlns="http://www.w3.org/2000/svg"
 width="700.000000pt" height="700.000000pt" viewBox="0 0 700.000000 700.000000"
 preserveAspectRatio="xMidYMid meet">
<metadata>
Created by potrace 1.14, written by Peter Selinger 2001-2017
</metadata>
<g transform="translate(0.000000,700.000000) scale(0.100000,-0.100000)"
fill="#000000" stroke="none">
<path d="M4298 6987 c-118 -34 -208 -145 -208 -258 0 -36 -2 -38 -37 -44 -119
-20 -260 -51 -343 -76 -744 -221 -1341 -814 -1565 -1554 -29 -95 -59 -231 -79
-356 -6 -36 -7 -37 -59 -41 -143 -12 -252 -132 -252 -278 1 -57 20 -123 154
-525 85 -253 160 -472 168 -487 24 -48 75 -98 127 -126 l51 -27 2120 0 2120 0
51 27 c52 28 103 78 127 126 8 15 83 234 168 487 137 410 153 467 153 526 0
150 -123 279 -264 279 -43 0 -39 -8 -60 120 -94 562 -426 1105 -889 1454 -324
243 -651 380 -1082 450 -36 6 -37 7 -41 59 -15 171 -191 291 -360 244z m227
-867 c238 -23 414 -73 630 -180 184 -92 303 -178 455 -330 143 -143 233 -265
319 -430 78 -152 171 -423 171 -502 0 -17 -89 -18 -1725 -18 -1698 0 -1725 0
-1725 19 0 35 58 246 90 327 92 231 218 422 400 604 151 151 270 237 455 329
304 152 609 211 930 181z m1775 -2042 c0 -7 -21 -75 -46 -150 l-46 -138 -1833
0 -1833 0 -46 138 c-25 75 -46 143 -46 150 0 9 393 12 1925 12 1532 0 1925 -3
1925 -12z"/>
<path d="M215 3486 c-95 -30 -158 -87 -191 -172 -18 -47 -19 -102 -19 -1564 0
-1466 1 -1517 19 -1564 25 -66 84 -128 149 -157 l52 -24 484 -3 c533 -3 547
-2 630 58 49 36 98 109 107 159 13 79 -40 71 497 71 743 0 717 -2 1787 139
377 50 746 97 820 105 236 27 381 78 517 183 648 504 1738 1356 1767 1383 98
87 160 231 160 370 0 154 -55 270 -189 406 -179 180 -377 210 -683 102 -178
-62 -317 -140 -898 -503 -323 -202 -605 -373 -626 -381 -39 -13 -198 -38 -314
-48 l-61 -5 -12 53 c-36 161 -204 397 -374 525 -29 22 -91 58 -138 80 -151 70
-172 73 -584 81 -287 6 -388 11 -449 25 -133 28 -226 71 -371 170 -179 122
-325 173 -521 182 -106 5 -255 -7 -298 -23 -9 -4 -15 16 -19 71 -11 130 -63
212 -165 262 l-57 28 -490 2 c-376 2 -499 -1 -530 -11z m665 -1736 l0 -1170
-150 0 -150 0 0 1170 0 1170 150 0 150 0 0 -1170z m985 803 c28 -11 94 -50
148 -86 124 -85 232 -139 360 -182 191 -63 218 -66 632 -75 442 -9 444 -9 532
-97 30 -31 51 -59 46 -64 -4 -4 -233 -10 -508 -12 -561 -4 -557 -3 -713 -79
-196 -96 -316 -283 -316 -493 0 -175 138 -306 308 -293 142 12 266 132 266
259 l0 28 873 3 c774 4 886 6 997 22 164 24 290 56 381 99 41 18 334 196 651
395 624 390 603 378 722 429 62 26 76 29 61 15 -11 -11 -351 -277 -755 -591
-404 -315 -760 -593 -790 -618 -81 -68 -137 -90 -262 -102 -59 -6 -434 -54
-835 -106 -400 -53 -786 -103 -858 -112 -100 -12 -268 -17 -737 -20 l-608 -5
0 831 0 830 53 16 c106 30 134 34 217 31 53 -2 104 -11 135 -23z"/>
</g>
</svg>
